<?xml version="1.0" standalone="no"?>
<!DOCTYPE svg PUBLIC "-//W3C//DTD SVG 20010904//EN"
 "http://www.w3.org/TR/2001/REC-SVG-20010904/DTD/svg10.dtd">
<svg version="1.0" xmlns="http://www.w3.org/2000/svg"
 width="48.000000pt" height="48.000000pt" viewBox="0 0 48.000000 48.000000"
 preserveAspectRatio="xMidYMid meet">

<g transform="translate(0.000000,48.000000) scale(0.100000,-0.100000)"
fill="#000000" stroke="none">
<path d="M225 470 c-4 -6 -1 -17 5 -25 18 -21 3 -35 -39 -35 -38 0 -82 -23
-69 -36 5 -4 19 -2 33 4 32 15 140 16 166 2 12 -7 19 -21 19 -40 0 -20 5 -30
15 -30 22 0 19 56 -5 80 -13 13 -33 20 -61 20 -39 0 -40 1 -37 32 3 31 -14 49
-27 28z"/>
<path d="M110 322 c0 -37 24 -69 59 -77 23 -5 27 -10 23 -30 -5 -27 7 -32 38
-15 13 7 21 7 25 0 12 -19 35 -10 35 13 0 15 11 27 32 37 18 8 34 21 36 29 4
11 0 12 -14 6 -11 -5 -54 -11 -97 -13 -88 -4 -107 5 -107 49 0 19 -5 29 -15
29 -10 0 -15 -10 -15 -28z m148 -93 c-12 -7 -24 -7 -35 0 -15 9 -12 10 17 10
29 0 32 -1 18 -10z"/>
<path d="M185 340 c-4 -6 -3 -16 3 -22 6 -6 12 -6 17 2 4 6 3 16 -3 22 -6 6
-12 6 -17 -2z"/>
<path d="M275 340 c-7 -12 2 -30 16 -30 12 0 12 27 0 35 -5 3 -12 1 -16 -5z"/>
<path d="M60 100 c0 -27 5 -50 10 -50 6 0 10 10 10 22 0 21 1 21 14 3 13 -18
13 -18 24 1 11 18 11 18 12 -4 0 -44 25 -17 28 31 2 37 0 47 -13 47 -8 0 -20
-11 -25 -25 -5 -14 -12 -25 -15 -25 -3 0 -10 11 -15 25 -15 41 -30 29 -30 -25z"/>
<path d="M296 104 c-19 -58 -19 -54 -1 -54 8 0 15 5 15 10 0 6 9 10 20 10 11
0 20 -4 20 -10 0 -5 7 -10 15 -10 8 0 15 1 15 3 0 1 -6 22 -14 47 -9 32 -19
46 -33 48 -17 2 -24 -6 -37 -44z m44 1 c0 -8 -4 -15 -10 -15 -5 0 -10 7 -10
15 0 8 5 15 10 15 6 0 10 -7 10 -15z"/>
<path d="M400 140 c0 -5 7 -10 15 -10 8 0 15 5 15 10 0 6 -7 10 -15 10 -8 0
-15 -4 -15 -10z"/>
<path d="M192 88 c2 -27 7 -33 26 -32 26 1 17 -11 -13 -19 -11 -3 -4 -5 15 -4
34 2 35 4 38 45 3 43 -14 60 -20 20 -5 -32 -28 -35 -28 -4 0 14 -5 26 -11 26
-6 0 -9 -14 -7 -32z"/>
<path d="M400 85 c0 -24 5 -35 15 -35 10 0 15 11 15 35 0 24 -5 35 -15 35 -10
0 -15 -11 -15 -35z"/>
</g>
</svg>
