<svg xmlns="http://www.w3.org/2000/svg" viewBox="0 9.470000267028809 104 46.31999969482422" data-asc="0.9052734375" width="104" height="46.31999969482422"><defs/><g><g fill="#000000"><g transform="translate(0, 0)"><path d="M0 45.26L0 9.47L7.13 9.47L15.60 34.81Q16.77 38.35 17.31 40.11Q17.92 38.16 19.21 34.38L27.78 9.47L34.16 9.47L34.16 45.26L29.59 45.26L29.59 15.31L19.19 45.26L14.92 45.26L4.57 14.79L4.57 45.26L0 45.26ZM41.04 55.25L40.55 51.12Q41.99 51.51 43.07 51.51Q44.53 51.51 45.41 51.03Q46.29 50.54 46.85 49.66Q47.27 49.00 48.19 46.39Q48.32 46.02 48.58 45.31L38.75 19.34L43.48 19.34L48.88 34.35Q49.93 37.21 50.76 40.36Q51.51 37.33 52.56 34.45L58.11 19.34L62.50 19.34L52.64 45.70Q51.05 49.98 50.17 51.59Q49.00 53.76 47.49 54.77Q45.97 55.79 43.87 55.79Q42.60 55.79 41.04 55.25ZM62.87 45.26L76.61 9.47L81.71 9.47L96.36 45.26L90.97 45.26L86.79 34.42L71.83 34.42L67.90 45.26L62.87 45.26M73.19 30.57L85.33 30.57L81.59 20.65Q79.88 16.14 79.05 13.23Q78.37 16.67 77.12 20.07L73.19 30.57ZM99.61 14.53L99.61 9.47L104.00 9.47L104.00 14.53L99.61 14.53M99.61 45.26L99.61 19.34L104.00 19.34L104.00 45.26L99.61 45.26Z"/></g></g></g></svg>